<?xml version="1.0" encoding="utf-8"?>
<!-- Generator: Adobe Illustrator 16.0.0, SVG Export Plug-In . SVG Version: 6.00 Build 0)  -->
<!DOCTYPE svg PUBLIC "-//W3C//DTD SVG 1.1//EN" "http://www.w3.org/Graphics/SVG/1.1/DTD/svg11.dtd">
<svg version="1.1" id="Logo" xmlns="http://www.w3.org/2000/svg" xmlns:xlink="http://www.w3.org/1999/xlink" x="0px" y="0px"
	 width="900px" height="750px" viewBox="0 0 900 750" enable-background="new 0 0 900 750" xml:space="preserve">
<g>
	<polygon points="545.842,433.952 505.413,493.597 565.097,514.425 	"/>
	<polygon points="536.603,432 450,432 450,480.012 496.744,490.936 	"/>
	<polygon points="571.703,214 508.131,299.515 638.361,343.849 571.945,214 	"/>
	<polygon points="450,423 542.558,423 542.939,422.508 499.118,308.577 450,345.477 	"/>
	<polygon points="700.444,139 720.184,220.4 780.023,139 	"/>
	<polygon points="712.489,226.052 691.177,138.16 579.294,205.94 	"/>
	<polygon points="890,416.004 890,373.019 777.136,355.828 839.848,465.775 	"/>
	<polygon points="769.629,359.985 725.729,468.875 831.668,468.553 	"/>
	<polygon points="831.483,477.103 725.426,477.303 767.785,584.496 	"/>
	<polygon points="839.917,237.646 775.67,346.737 890,364.133 890,312.886 	"/>
	<polygon points="709.242,481.173 579.415,523.193 644.097,587.835 	"/>
	<polygon points="718.32,483.222 652.83,590.507 760.545,590.076 	"/>
	<polygon points="635.814,591.979 571.757,527.961 508.583,612.759 	"/>
	<polygon points="582.605,215.325 647.587,342.43 710.699,234.666 	"/>
	<polygon points="890,146.583 890,57.226 800.999,128.604 	"/>
	<path d="M736.352,52.602L721.205,7c-29.051,0-58.635,0-85.822,0l-30.762,46.534L736.352,52.602z"/>
	<polygon points="841.104,223.162 890,172.886 890,155.544 797.002,136.736 	"/>
	<polygon points="560.761,214 450,214 450,246.617 500.564,295.123 	"/>
	<path d="M505.645,622.316L532.733,668c17.427,0,42.375,0,71.104,0l33.389-67.089L505.645,622.316z"/>
	<path d="M587.052,58.194L504.886,8.566c-7.82,1.127-14.53,2.979-20.286,5.333l17.164,86.512L587.052,58.194z"/>
	<polygon points="831.913,234.323 726.731,235.751 769.683,340.183 	"/>
	<polygon points="700.205,474.921 554.905,434.076 574.412,515.604 	"/>
	<polygon points="549.893,416.196 637.825,352.776 508.488,308.801 	"/>
	<polygon points="726.307,226.972 832.685,225.527 789.593,140.858 	"/>
	<polygon points="762.406,354.408 655.047,355.701 718.429,463.49 	"/>
	<polygon points="646.026,357.691 553.371,424.52 711.453,468.958 	"/>
	<polygon points="655.141,346.914 762.421,345.622 718.475,238.772 	"/>
	<polygon points="606.925,62.894 692.054,127.161 734.349,61.991 	"/>
	<rect x="93" y="515" width="284" height="11"/>
	<path d="M497.277,625.063L450,656.659v42.953C440,681.063,419.003,660,378.026,660H21V19h355.562
		c25.457,0,44.753,6.782,57.124,20.111C446.345,52.751,449,70.495,450,80.427v8.456c0,0.046,0,0.074,0,0.075v79.155l44.355-60.486
		l-17.86-89.721c-14.908,8.695-21.521,21.159-24.416,30.505C442.438,28.562,421.52,9,376.562,9C303.356,9,11,9,11,9v662
		c0,0,293.82,0,367.026,0s73.206,72.629,73.206,72.629s2.019-54.253,44.488-72.718c8.273-2.851,15.29-3.201,26.848-3.208
		L497.277,625.063z"/>
	<rect x="93" y="586" width="284" height="10"/>
	<polygon points="845.679,230.81 890,297.083 890,185.455 	"/>
	<path d="M748.577,58.271l43.639,66.22L890,45.965V7c0,0-0.039,0-0.997,0c0,0-31.733,0-76.546,0L748.577,58.271z"/>
	<rect x="93" y="441" width="284" height="10"/>
	<polygon points="700.482,130 785.635,130 742.628,65.275 	"/>
	<rect x="93" y="82" width="284" height="10"/>
	<path d="M775.392,600.5l40.467,67.5c43.965,0,74.142,0,74.142,0v-48.661L775.392,600.5z"/>
	<rect x="93" y="154" width="284" height="10"/>
	<rect x="93" y="224" width="284" height="10"/>
	<rect x="93" y="369" width="284" height="10"/>
	<rect x="93" y="297" width="284" height="10"/>
	<path d="M594.844,52.473L624.849,7c-36.327,0-67.433,0-85.77,0c-6.142,0-11.552,0-16.105,0c-1.042,0-2.048,0.109-3.062,0.131
		L594.844,52.473z"/>
	<polygon points="450,205 565.938,205 498.747,116.489 450,182.942 	"/>
	<polygon points="450,258.764 450,334.503 494.459,301.214 	"/>
	<polygon points="890,516.566 890,428.365 845.028,472.892 	"/>
	<polygon points="487.916,497.839 450,489.03 450,523.116 	"/>
	<path d="M730.464,7l14.302,42.903L798.395,7C777.409,7,754.226,7,730.464,7z"/>
	<polygon points="578.817,195.958 684.109,132.17 599.357,68.188 	"/>
	<polygon points="569.953,195.756 590.789,66.146 504.04,109.086 	"/>
	<path d="M767.784,604.678L742.556,668c22.293,0,43.744,0,63.069,0L767.784,604.678z"/>
	<path d="M760.606,598.781l-109.151,0.304L681.261,668c17.281,0,34.747,0,51.838,0L760.606,598.781z"/>
	<path d="M890,526.56c0,0.017-0.091,0.047-0.256,0.047c-1.104,0-2.09-0.412-2.943-1.241l-46.704-45.415l-66.305,111.21L890,610.435
		V526.56z"/>
	<polygon points="450,575.645 450,646.102 491.939,618.144 	"/>
	<path d="M644.704,605.69L613.653,668c18.349,0,37.989,0,58.034,0L644.704,605.69z"/>
	<polygon points="564.192,523.412 499.306,500.727 450,533.674 450,563.137 498.222,612.12 	"/>
</g>
</svg>
